<?xml version="1.0" standalone="no"?>
<!DOCTYPE svg PUBLIC "-//W3C//DTD SVG 20010904//EN" "http://www.w3.org/TR/2001/REC-SVG-20010904/DTD/svg10.dtd">
<svg xmlns="http://www.w3.org/2000/svg" version="1.0" width="4961.000000pt" height="3543.000000pt" viewBox="0 0 4961.000000 3543.000000" preserveAspectRatio="xMidYMid meet">
<metadata>
Created by potrace 1.16, written by Peter Selinger 2001-2019
<meta name="Producer" content="Online-Convert"/></metadata>
<g transform="translate(0.000000,3543.000000) scale(0.100000,-0.100000)" fill="#000000" stroke="none">
<path d="M0 33658 l0 -1773 687 -1900 c378 -1045 688 -1901 689 -1903 1 -2 51 -16 110 -32 143 -38 283 -86 425 -146 98 -41 124 -57 185 -115 39 -37 84 -74 100 -82 33 -17 198 -32 459 -43 137 -5 192 -3 283 11 107 17 114 19 109 39 -2 11 -624 1733 -1382 3826 -758 2093 -1384 3824 -1392 3848 l-15 42 -129 0 -129 0 0 -1772z"/>
<path d="M1814 35393 c141 -392 2747 -7587 2750 -7591 2 -4 57 -4 123 0 65 4 219 11 343 16 186 7 231 11 259 26 33 18 34 19 28 72 -5 50 -4 56 19 71 14 8 26 14 28 12 1 -2 8 -29 15 -60 19 -88 26 -94 118 -93 109 1 164 27 278 132 52 48 116 95 151 113 l61 30 -64 177 c-35 97 -630 1741 -1322 3652 l-1257 3475 -772 3 -771 2 13 -37z"/>
<path d="M4890 35424 c0 -5 2471 -6836 2474 -6841 1 -1 19 0 39 4 34 5 37 8 37 39 0 31 3 34 52 49 57 17 88 19 88 7 0 -5 6 -16 13 -26 12 -17 17 -16 95 14 45 17 110 52 144 78 l63 47 165 -1 c91 0 182 -5 203 -10 l39 -9 -65 -63 c-36 -34 -64 -62 -63 -62 1 0 53 11 117 24 63 13 187 34 276 46 153 21 165 21 224 6 35 -8 64 -15 65 -13 1 1 -546 1513 -1214 3360 l-1216 3357 -768 0 c-422 0 -768 -3 -768 -6z"/>
<path d="M8006 35333 c19 -54 564 -1560 1211 -3348 647 -1787 1179 -3254 1184 -3259 8 -10 109 22 223 71 87 37 147 45 445 62 89 6 165 11 167 13 2 3 -5 28 -16 56 -32 84 -23 138 32 189 33 31 282 92 325 79 17 -4 66 -5 108 -1 72 6 76 8 71 28 -3 12 -509 1413 -1124 3112 l-1119 3090 -771 3 -772 2 36 -97z"/>
<path d="M11063 35413 c13 -48 2250 -6219 2256 -6226 4 -4 122 24 261 63 228 64 255 70 266 55 6 -8 55 -113 108 -233 53 -119 103 -225 110 -234 19 -26 288 -154 395 -189 52 -16 140 -37 195 -45 56 -8 104 -16 108 -17 4 -1 -2 -22 -12 -46 -54 -119 0 -152 206 -123 48 7 49 8 64 54 8 26 24 59 36 75 l21 28 -1241 3428 -1240 3427 -769 0 c-728 0 -769 -1 -764 -17z"/>
<path d="M14179 35323 c295 -821 2335 -6450 2340 -6455 5 -6 31 -1 160 28 23 5 24 3 18 -35 -3 -22 -26 -77 -51 -120 -49 -85 -52 -100 -33 -142 l12 -26 105 30 105 30 100 -18 c171 -30 223 -30 426 4 101 17 299 44 439 61 140 17 267 34 281 38 l27 7 -1213 3350 -1213 3350 -771 3 -770 2 38 -107z"/>
<path d="M17232 35413 c4 -13 2243 -6202 2960 -8180 l30 -83 80 0 c90 0 135 15 259 88 146 85 257 200 317 328 l23 49 82 16 c164 32 280 94 408 219 l88 85 -1357 3748 -1357 3747 -768 0 c-728 0 -769 -1 -765 -17z"/>
<path d="M20315 35413 c4 -10 639 -1766 1413 -3903 773 -2137 1407 -3887 1408 -3889 2 -2 31 2 64 7 75 14 154 49 216 96 l47 36 146 0 c176 1 470 16 479 24 5 6 -5 59 -40 206 -2 11 20 18 102 32 187 31 225 58 256 179 9 35 20 66 25 69 5 3 -574 1614 -1285 3580 l-1294 3575 -772 3 c-733 2 -772 1 -765 -15z"/>
<path d="M23400 35423 c0 -5 622 -1728 1382 -3831 1271 -3512 1385 -3822 1403 -3817 75 20 175 28 214 16 45 -13 131 -88 131 -113 0 -17 23 -22 157 -34 l73 -7 -6 47 c-6 40 -4 48 17 66 54 47 74 50 261 39 219 -14 633 -8 649 8 9 9 -304 886 -1367 3823 l-1379 3810 -767 0 c-423 0 -768 -3 -768 -7z"/>
<path d="M26480 35428 c0 -2 629 -1740 1398 -3863 l1397 -3860 35 -5 c47 -8 80 -27 80 -47 0 -8 -10 -32 -22 -51 l-22 -35 24 -16 c13 -9 87 -60 165 -114 233 -163 231 -162 510 -198 92 -12 102 -15 125 -43 75 -90 81 -93 165 -101 44 -4 135 -5 203 -2 120 6 126 5 210 -25 48 -17 89 -33 91 -35 3 -2 -6 -11 -18 -20 -28 -19 -60 -87 -61 -125 0 -22 -5 -28 -23 -28 -12 0 -28 9 -34 19 -8 12 -29 21 -62 26 -73 10 -100 -7 -128 -79 -12 -33 -28 -63 -35 -68 -7 -4 -74 -8 -148 -9 -74 0 -155 -4 -180 -7 l-45 -7 50 -30 c28 -17 92 -45 144 -63 83 -28 103 -41 172 -103 l79 -71 88 7 c85 7 95 5 256 -39 93 -26 171 -44 174 -41 3 3 1 5 -4 5 -5 0 23 14 61 30 39 17 82 40 98 53 l27 22 -1605 4435 c-883 2439 -1610 4447 -1616 4463 l-11 27 -769 0 c-423 0 -769 -1 -769 -2z"/>
<path d="M29573 35410 c6 -24 3269 -9043 3274 -9049 2 -3 47 6 101 20 92 23 102 23 202 12 58 -7 236 -17 395 -22 160 -6 335 -17 390 -25 108 -17 421 -22 443 -7 11 6 -345 999 -1630 4550 l-1643 4541 -769 0 c-761 0 -768 0 -763 -20z"/>
<path d="M32653 35418 c2 -7 701 -1937 1552 -4288 851 -2351 1549 -4277 1551 -4279 2 -2 140 72 306 165 355 197 717 381 876 444 97 39 112 48 109 65 -3 15 -2816 7793 -2852 7888 -7 16 -53 17 -777 17 -612 0 -769 -3 -765 -12z"/>
<path d="M36357 33708 c343 -948 980 -2708 1415 -3911 l792 -2189 36 5 c44 6 189 -45 220 -78 l21 -23 -21 -20 c-12 -11 -59 -32 -104 -47 l-83 -26 21 -59 c19 -55 23 -59 64 -71 48 -13 92 -44 92 -63 0 -7 -15 -34 -34 -60 l-34 -48 35 -97 c19 -53 41 -112 48 -131 l12 -35 84 -3 c102 -4 335 14 444 35 44 8 118 17 165 20 80 5 89 9 162 55 72 44 99 54 325 113 135 35 248 66 250 69 2 2 -670 1867 -1494 4145 l-1498 4141 -771 0 -771 0 624 -1722z"/>
<path d="M38823 35418 c4 -13 2700 -7461 2757 -7620 23 -62 37 -88 48 -88 30 -1 106 -40 139 -72 34 -33 47 -64 58 -133 l6 -40 207 0 c222 0 288 -11 345 -56 50 -38 39 -69 -63 -174 -97 -100 -115 -131 -100 -169 12 -33 35 -38 119 -26 251 35 520 151 679 291 24 21 84 58 133 81 49 24 89 46 89 50 0 4 -644 1786 -1431 3960 -787 2174 -1436 3965 -1441 3981 l-10 27 -770 0 c-612 0 -769 -3 -765 -12z"/>
<path d="M41916 35393 c8 -21 617 -1703 1353 -3738 l1339 -3700 79 -7 c43 -3 116 -19 163 -33 64 -21 95 -26 130 -21 25 4 162 13 305 21 143 8 285 19 315 24 30 5 57 7 59 5 9 -9 -21 -58 -66 -105 -53 -57 -173 -139 -279 -192 l-70 -35 -17 -79 c-22 -103 -63 -186 -124 -253 -87 -95 -108 -160 -82 -253 l10 -39 62 7 c80 9 232 41 296 63 63 22 199 129 287 226 36 41 74 76 84 78 16 3 14 12 -17 88 -19 47 -43 118 -55 159 -30 109 -18 125 135 177 131 45 272 52 353 19 l32 -13 -30 82 c-16 44 -638 1762 -1381 3816 l-1352 3735 -772 3 -771 2 14 -37z"/>
<path d="M44994 35413 c48 -150 2647 -7308 2654 -7308 5 0 56 24 113 53 157 79 199 79 312 -2 48 -35 48 -35 90 -20 88 32 265 73 343 79 l81 7 -21 66 c-15 47 -18 66 -9 69 29 10 162 111 229 175 71 67 76 70 111 65 21 -4 58 -20 82 -38 35 -24 43 -27 39 -12 -3 10 -560 1550 -1238 3423 -678 1873 -1237 3417 -1242 3433 l-10 27 -770 0 c-728 0 -769 -1 -764 -17z"/>
<path d="M48081 35403 c6 -16 349 -964 763 -2108 414 -1144 756 -2087 759 -2095 3 -8 6 940 6 2108 l1 2122 -770 0 -770 0 11 -27z"/>
<path d="M7443 28464 l-32 -14 26 -72 c15 -40 27 -74 28 -76 1 -1 15 4 31 12 16 7 92 19 169 26 77 7 144 15 148 17 5 3 -15 29 -43 58 -49 49 -57 54 -112 60 -38 5 -63 3 -72 -4 -10 -8 -21 -8 -40 -1 -35 13 -64 12 -103 -6z"/>
<path d="M18304 28088 c-9 -18 -40 -62 -69 -98 -95 -118 -110 -176 -53 -206 42 -22 290 -105 296 -99 4 4 -144 425 -153 433 -2 2 -11 -11 -21 -30z"/>
<path d="M49480 27629 c-69 -15 -181 -35 -250 -44 -69 -9 -156 -22 -195 -31 -87 -18 -113 -18 -158 1 -49 20 -90 19 -110 -3 -28 -31 -20 -49 36 -80 132 -74 89 -142 -90 -142 -102 0 -171 -14 -338 -65 -141 -43 -250 -54 -340 -34 -78 17 -96 15 -180 -28 -76 -38 -107 -61 -100 -73 3 -4 42 -27 86 -50 74 -37 85 -40 111 -29 16 6 38 25 50 41 19 27 25 29 67 25 25 -2 83 -17 128 -33 95 -33 103 -51 33 -73 -25 -7 -67 -22 -95 -34 -180 -73 -261 -86 -425 -67 -325 36 -570 18 -642 -47 -24 -21 -23 -70 3 -135 26 -66 16 -92 -41 -109 -53 -16 -83 -2 -109 50 -12 22 -31 47 -43 55 -45 32 -138 10 -138 -32 0 -9 18 -33 40 -53 44 -41 52 -76 23 -105 -30 -30 -196 -103 -272 -120 -110 -25 -170 -9 -323 88 -75 47 -74 88 4 127 51 25 39 26 -76 6 -52 -9 -112 -28 -147 -46 -82 -41 -103 -37 -107 19 -3 43 -4 43 -34 36 -18 -3 -59 -21 -92 -40 -110 -60 -179 -54 -246 22 -38 44 -38 58 2 95 61 55 88 53 268 -25 92 -40 110 -43 215 -27 90 14 210 14 258 0 32 -9 43 -7 72 11 45 28 55 58 25 82 -12 10 -65 32 -118 49 -92 30 -109 32 -322 39 -124 5 -254 13 -289 20 -47 8 -83 8 -133 0 -82 -12 -112 -23 -298 -111 -135 -63 -240 -99 -288 -99 -29 0 -36 -17 -19 -44 19 -28 51 -40 141 -54 70 -11 93 -22 82 -41 -10 -16 -197 -119 -231 -127 -55 -13 -106 -45 -126 -79 -24 -39 -46 -49 -81 -36 -20 7 -26 19 -31 51 -8 58 -31 90 -66 90 -16 0 -67 -18 -113 -41 -73 -35 -89 -40 -132 -35 -54 6 -116 -14 -116 -37 0 -26 27 -38 127 -58 95 -20 160 -47 176 -75 12 -20 100 -44 201 -54 110 -11 120 -19 110 -89 -9 -66 -25 -76 -113 -67 -36 3 -106 1 -154 -4 -107 -12 -162 -1 -179 35 -16 35 2 51 69 66 68 16 98 37 89 66 -6 18 -15 20 -84 21 -63 0 -100 7 -202 40 -219 71 -444 104 -576 83 -66 -10 -189 -49 -181 -57 2 -2 86 -13 188 -24 101 -10 199 -24 217 -31 43 -15 53 -51 23 -87 -37 -47 -45 -70 -31 -87 20 -24 45 -18 153 34 126 61 142 64 171 35 18 -17 21 -66 6 -93 -11 -21 -78 -51 -114 -51 -13 0 -63 -20 -111 -45 -108 -55 -140 -62 -190 -41 -21 9 -39 15 -40 14 -8 -12 22 -73 53 -109 59 -67 67 -85 47 -115 -48 -74 -152 -84 -247 -24 -153 97 -198 101 -450 36 -97 -25 -185 -46 -196 -46 -34 0 -54 29 -47 67 l6 33 -96 0 c-71 0 -112 -5 -158 -21 -34 -11 -81 -21 -105 -22 -78 -1 -97 42 -79 175 l8 57 -33 21 c-22 13 -50 20 -86 20 -59 0 -72 14 -53 56 17 39 72 57 147 48 69 -7 94 3 94 37 0 28 -39 49 -91 49 -70 0 -165 33 -361 126 -340 160 -348 161 -708 61 -135 -38 -274 -77 -309 -88 -82 -25 -147 -24 -188 1 -67 40 -52 108 32 148 28 13 66 31 85 40 55 27 47 51 -32 91 -58 29 -78 34 -160 38 -51 2 -169 -2 -261 -10 -146 -12 -171 -16 -189 -34 -18 -18 -19 -25 -10 -53 7 -17 23 -45 37 -62 30 -36 32 -64 5 -78 -12 -6 -70 -10 -141 -9 -130 2 -158 -7 -145 -49 8 -25 33 -32 88 -22 24 4 104 13 178 19 106 9 146 9 185 -1 47 -12 50 -15 53 -48 2 -19 14 -70 28 -113 51 -164 28 -219 -121 -295 -85 -44 -106 -47 -138 -22 -34 27 -24 44 35 62 49 14 92 62 79 87 -15 28 -167 168 -203 187 -21 11 -56 18 -94 18 -50 1 -68 -4 -103 -27 -47 -31 -83 -82 -79 -112 3 -19 11 -20 115 -20 74 0 116 -4 124 -12 20 -20 -8 -43 -50 -43 -20 0 -65 -9 -99 -20 -70 -22 -136 -26 -178 -9 -16 5 -72 41 -125 79 -199 143 -289 155 -604 80 -66 -16 -152 -33 -191 -38 -39 -6 -91 -20 -115 -33 -57 -29 -121 -29 -218 3 -80 25 -103 46 -85 75 22 35 87 44 197 28 122 -19 179 -12 417 46 180 44 210 61 210 120 0 73 -79 98 -190 59 -104 -37 -210 -22 -340 46 -52 28 -61 29 -180 29 -113 -1 -141 -5 -300 -44 -209 -53 -353 -64 -457 -37 l-62 16 -63 -47 c-182 -138 -416 -206 -640 -186 l-98 9 7 -39 c12 -77 -26 -107 -192 -152 -111 -30 -130 -38 -162 -68 -40 -36 -30 -53 39 -67 123 -24 185 -66 143 -97 -68 -49 -172 -14 -196 67 -22 73 -120 68 -236 -11 -80 -56 -110 -61 -348 -68 -246 -8 -284 -17 -355 -86 l-36 -35 -39 20 c-60 31 -156 27 -285 -11 -135 -40 -233 -45 -319 -19 -77 24 -199 26 -291 4 -36 -8 -108 -35 -161 -60 -152 -71 -235 -68 -277 7 -16 29 -19 30 -78 27 -51 -3 -70 -10 -123 -46 -35 -23 -69 -42 -75 -42 -6 0 -20 14 -30 31 -36 61 -146 89 -286 71 -56 -7 -86 -6 -118 4 l-43 12 -24 -38 c-52 -83 -140 -117 -382 -150 -169 -23 -237 -43 -321 -94 -84 -52 -177 -72 -402 -85 -202 -13 -336 -35 -417 -71 -45 -20 -48 -20 -82 -3 -29 15 -65 18 -192 20 -204 2 -239 18 -257 123 -7 39 -11 44 -47 57 -71 25 -270 54 -347 51 -68 -3 -73 -5 -76 -26 -5 -34 13 -50 84 -72 35 -10 76 -25 91 -33 15 -8 53 -20 83 -27 l55 -13 -65 -24 c-60 -23 -70 -24 -125 -13 -88 17 -241 14 -398 -10 -235 -34 -373 -24 -550 41 -167 62 -287 136 -539 333 -93 72 -205 106 -347 106 -79 0 -101 9 -101 41 0 56 111 66 276 24 54 -14 106 -25 116 -25 22 0 47 36 41 60 -8 32 -51 40 -203 37 -135 -2 -148 0 -193 22 -58 28 -102 79 -122 142 -17 51 -57 94 -96 104 -15 4 -45 -1 -75 -13 -76 -30 -129 -33 -260 -17 -96 12 -131 13 -170 3 -27 -6 -102 -10 -166 -9 -113 3 -118 2 -118 -17 0 -11 16 -37 35 -58 19 -20 34 -38 33 -39 -2 -2 -18 -12 -36 -22 -32 -20 -32 -20 -90 1 -44 15 -82 20 -162 20 -117 0 -131 -3 -375 -88 -108 -38 -183 -57 -230 -61 -38 -3 -94 -13 -122 -23 -52 -16 -53 -16 -85 8 -126 93 -166 110 -263 110 -68 -1 -137 -23 -291 -94 -107 -49 -281 -90 -497 -117 -120 -14 -341 -7 -417 15 -50 14 -66 14 -170 0 -287 -39 -354 -79 -349 -210 3 -67 -6 -75 -76 -72 -46 3 -50 5 -55 33 -10 49 -38 82 -121 147 -106 81 -138 138 -113 203 11 27 60 45 122 45 94 0 412 -48 540 -81 64 -17 131 -33 147 -36 33 -5 299 60 322 78 18 16 16 26 -7 49 -19 19 -29 20 -123 14 -226 -14 -471 71 -392 136 18 15 7 17 226 -37 37 -9 75 -13 85 -9 16 6 14 9 -14 26 -39 24 -40 44 -6 112 23 44 24 52 11 65 -31 32 -232 56 -569 69 -152 6 -168 5 -168 -10 0 -28 49 -38 168 -37 63 1 130 -3 151 -9 41 -11 84 -46 78 -63 -2 -7 -32 -28 -68 -47 -56 -30 -73 -35 -134 -34 -58 0 -85 6 -158 37 -144 61 -232 46 -134 -23 23 -17 53 -40 66 -53 13 -12 42 -27 65 -32 43 -12 60 -39 28 -47 -10 -3 -95 -2 -188 2 -176 8 -294 29 -388 69 -110 48 -212 142 -249 233 -15 37 -42 58 -72 58 -50 0 -198 -99 -226 -151 -26 -50 39 -84 198 -102 68 -8 133 -22 153 -32 l34 -17 -25 -14 c-13 -7 -44 -13 -69 -14 -73 0 -712 81 -747 96 -42 17 -43 42 -2 106 43 67 62 149 42 178 -11 16 -23 20 -50 18 -20 -2 -39 -10 -44 -18 -4 -8 -17 -36 -29 -62 -27 -59 -112 -145 -176 -178 -44 -22 -61 -25 -164 -25 -104 0 -124 3 -205 32 -121 43 -185 53 -339 53 -230 0 -369 26 -458 85 -40 26 -73 32 -83 15 -10 -17 15 -40 72 -67 64 -30 70 -55 19 -80 -32 -15 -40 -15 -123 5 -54 12 -144 23 -233 27 -223 10 -324 41 -383 116 l-24 32 -89 -17 c-49 -9 -136 -16 -194 -16 -58 0 -141 -7 -185 -16 -44 -9 -123 -17 -176 -17 -95 -2 -97 -1 -177 40 -53 28 -122 53 -202 72 -66 16 -136 39 -154 51 -39 23 -70 81 -63 116 8 43 -16 47 -69 11 -58 -40 -84 -49 -229 -77 -60 -12 -116 -26 -124 -30 -21 -12 13 -27 91 -40 64 -11 67 -13 82 -51 28 -68 18 -111 -25 -110 -13 0 -71 3 -129 7 -149 9 -179 -1 -257 -84 -61 -65 -62 -66 -121 -70 -74 -5 -146 24 -210 85 -50 48 -54 78 -14 115 55 53 114 55 176 4 l30 -23 73 24 c106 36 156 91 139 156 -7 28 -55 57 -94 57 -16 0 -65 -17 -108 -37 l-79 -38 -175 -6 c-96 -3 -176 -7 -178 -8 -2 0 -12 -20 -22 -44 -23 -51 -53 -80 -99 -96 -42 -14 -125 -14 -171 -1 -76 22 -236 40 -360 40 -71 0 -130 3 -130 8 0 4 17 21 37 38 31 26 35 34 25 46 -10 13 -5 18 29 31 49 19 48 41 -2 45 -26 2 -59 -10 -134 -49 -124 -65 -228 -103 -341 -125 -73 -14 -119 -15 -259 -9 -296 12 -414 0 -552 -55 -94 -38 -151 -39 -182 -6 -41 43 -13 74 94 105 94 28 125 43 125 60 0 45 -61 53 -155 21 -70 -24 -113 -25 -163 -4 -41 17 -92 61 -92 80 0 11 27 25 79 39 13 4 39 17 59 28 l36 21 -35 15 c-26 12 -73 15 -199 15 -150 0 -179 -3 -320 -34 -140 -30 -170 -34 -315 -33 -185 0 -262 16 -403 83 -46 22 -92 40 -102 40 -50 0 -22 -43 52 -81 51 -26 62 -40 44 -57 -14 -15 -23 -14 -571 33 -154 14 -350 29 -435 35 -110 7 -212 22 -350 50 -231 48 -379 59 -534 40 -101 -12 -105 -12 -140 9 -55 34 -108 104 -104 138 3 28 28 42 101 58 20 4 27 11 25 23 -2 13 -17 18 -66 22 -88 7 -96 18 -87 136 6 87 5 93 -19 120 -22 26 -30 29 -83 28 -32 -1 -110 -14 -173 -29 -213 -52 -394 -37 -497 41 -30 23 -36 24 -51 12 -38 -33 -37 -33 -501 -37 -50 -1 -79 23 -108 85 -21 47 -28 54 -53 54 -47 0 -55 -21 -35 -87 21 -66 16 -79 -41 -108 -65 -33 -202 -28 -335 12 -94 29 -284 73 -316 73 -18 0 -16 -23 4 -59 15 -24 15 -33 5 -43 -10 -10 -25 -9 -80 5 -71 18 -108 48 -144 115 -20 38 -52 52 -115 52 -35 0 -83 -17 -202 -69 -324 -143 -375 -149 -857 -111 -137 10 -350 24 -474 30 -271 12 -414 23 -665 51 -104 12 -213 19 -241 16 -49 -5 -146 -46 -159 -66 -3 -6 19 -28 50 -51 30 -22 55 -45 55 -49 0 -13 -24 -20 -104 -32 -111 -15 -124 -48 -40 -108 25 -18 43 -38 41 -44 -2 -7 -30 -18 -63 -25 -32 -8 -108 -25 -169 -39 -219 -50 -310 -40 -329 39 -15 60 2 72 91 64 42 -4 89 -2 111 3 48 13 85 51 80 83 -3 20 -10 24 -63 29 -33 3 -94 15 -135 27 -104 30 -219 48 -394 63 -170 14 -481 8 -499 -10 -8 -8 1 -24 36 -59 58 -59 60 -77 8 -93 -58 -17 -84 -6 -131 58 -60 83 -84 98 -150 98 -43 0 -72 -8 -134 -39 -100 -49 -159 -54 -372 -32 -146 16 -165 16 -229 1 -207 -46 -248 -43 -304 20 -27 31 -34 34 -52 24 -15 -8 -52 -9 -116 -4 -101 7 -135 -3 -148 -44 -12 -38 -58 -46 -154 -28 -135 26 -263 31 -446 17 -248 -18 -470 -17 -585 5 -52 9 -126 23 -163 29 -81 15 -104 32 -83 61 13 18 27 20 127 20 132 0 153 14 62 42 -44 14 -91 18 -198 18 -152 0 -163 -3 -295 -82 -35 -21 -57 -27 -100 -27 -51 1 -199 40 -354 94 -136 47 -221 36 -291 -36 -53 -54 -65 -54 -187 -11 -154 56 -214 56 -288 2 -19 -14 -43 -25 -54 -25 -12 0 -54 17 -95 37 -104 53 -176 52 -356 -7 -112 -37 -148 -44 -259 -51 -152 -10 -197 -18 -411 -69 -274 -66 -320 -73 -490 -76 -88 -1 -168 -3 -178 -3 -10 -1 -42 -25 -72 -55 -39 -39 -64 -57 -91 -62 -39 -7 -213 1 -251 12 l-23 6 0 -8141 c0 -4477 3 -8141 8 -8141 4 1 18 7 32 15 33 19 84 19 126 -1 51 -25 107 -98 184 -244 79 -148 115 -199 166 -231 30 -18 43 -20 92 -14 108 14 143 9 248 -34 116 -47 171 -52 223 -20 42 26 47 31 175 209 158 220 218 268 315 255 30 -4 80 1 144 15 142 30 198 10 253 -88 114 -202 158 -258 228 -294 55 -28 135 -20 253 26 51 20 109 36 130 36 l38 0 34 -88 c86 -221 197 -415 291 -509 108 -109 194 -123 349 -59 79 32 103 38 147 34 64 -5 108 -36 151 -105 17 -26 76 -124 133 -216 56 -93 108 -171 114 -173 6 -2 155 52 331 120 l320 124 100 299 c132 393 180 492 254 523 27 11 39 9 105 -19 307 -128 477 -66 800 290 53 59 108 112 124 118 15 6 63 18 107 26 80 14 111 28 370 163 114 60 208 87 275 79 25 -3 75 -20 112 -37 189 -89 304 -83 643 35 212 74 315 97 405 93 l64 -3 90 -146 c50 -81 115 -179 144 -217 183 -245 336 -212 494 106 28 56 52 101 53 100 1 -2 21 -39 45 -83 115 -217 260 -384 385 -446 63 -31 78 -34 155 -34 47 0 104 4 127 9 l42 8 33 -48 c115 -169 170 -155 292 72 115 214 206 322 312 371 48 22 66 25 125 21 70 -5 82 -10 248 -98 90 -49 161 -47 331 8 165 54 187 57 252 38 77 -22 125 -68 188 -181 87 -154 138 -185 273 -166 40 6 104 13 142 16 197 15 236 23 346 71 102 45 187 64 284 64 116 0 176 -12 432 -87 l228 -67 172 -1 172 0 30 -29 c45 -43 92 -142 156 -326 108 -309 184 -459 290 -570 35 -36 90 -104 124 -152 71 -101 124 -156 158 -164 13 -4 42 -4 63 -1 46 6 45 7 60 -102 9 -70 18 -92 62 -163 86 -141 134 -176 195 -145 33 18 115 102 163 170 19 27 54 60 78 74 40 24 50 25 120 19 43 -3 79 -11 84 -19 55 -84 37 -330 -48 -672 -19 -77 -46 -193 -59 -258 l-24 -119 25 -86 c62 -214 131 -302 237 -302 58 0 102 22 182 89 33 29 76 56 95 61 630 165 1182 294 1371 321 140 19 305 -16 525 -112 109 -48 109 -47 164 -266 21 -85 41 -157 44 -160 10 -10 232 24 475 72 123 25 238 45 257 45 74 0 130 -86 160 -247 26 -145 63 -183 125 -130 15 12 62 67 104 122 138 178 162 188 224 96 54 -78 94 -108 242 -179 139 -67 199 -118 258 -219 19 -32 40 -68 48 -80 17 -29 36 -29 87 1 28 16 113 39 261 71 121 26 271 63 335 82 63 20 144 39 180 43 122 12 136 29 251 288 46 105 127 143 181 84 14 -15 43 -60 64 -101 60 -117 113 -134 268 -86 125 38 309 75 373 75 134 -1 217 -88 298 -312 21 -59 37 -61 102 -14 53 37 128 66 172 66 52 0 154 -39 266 -101 61 -33 162 -80 225 -104 63 -24 144 -56 180 -71 74 -31 162 -42 213 -25 20 7 86 57 149 112 279 247 443 316 913 384 264 38 408 77 549 147 43 22 80 37 83 35 2 -3 15 -56 29 -118 30 -139 82 -252 127 -280 33 -19 95 -24 132 -10 32 13 70 -7 121 -62 64 -69 92 -87 135 -87 73 0 163 85 289 275 141 213 317 414 452 515 97 74 138 95 295 153 205 77 322 130 848 382 77 37 158 72 180 79 25 7 44 21 52 36 6 14 32 68 57 121 48 101 89 149 131 149 37 0 81 -45 146 -151 69 -112 108 -151 194 -189 33 -15 90 -41 126 -57 l65 -30 13 -59 c28 -125 104 -372 132 -432 19 -39 40 -67 55 -74 22 -10 29 -8 58 21 44 42 97 149 250 501 l124 285 52 28 c60 31 88 33 136 11 49 -23 90 -94 131 -224 26 -82 45 -123 65 -143 31 -32 38 -31 124 9 58 27 92 30 118 11 20 -15 27 -71 57 -470 12 -163 13 -168 33 -163 203 57 751 195 780 198 l40 3 37 93 c92 231 157 239 229 27 9 -28 24 -51 33 -53 8 -2 34 9 57 24 23 16 44 23 49 18 4 -5 27 -108 51 -229 23 -121 46 -224 51 -229 4 -5 90 52 196 132 308 230 473 332 537 332 21 0 40 -8 54 -23 23 -25 69 -121 127 -269 27 -69 43 -98 55 -98 9 0 50 11 90 25 155 53 224 22 290 -128 12 -27 32 -89 44 -138 l23 -89 104 107 c90 93 113 124 168 228 136 255 194 307 261 235 16 -17 36 -54 46 -83 9 -29 18 -53 19 -55 1 -1 16 5 32 14 48 28 79 13 173 -86 47 -49 97 -94 113 -99 34 -13 68 -1 95 34 26 33 75 136 92 190 l12 40 49 -3 c28 -2 88 3 134 13 112 22 147 12 230 -65 101 -94 167 -102 267 -31 63 46 116 111 188 234 63 107 108 154 155 163 66 12 116 -26 208 -157 60 -87 155 -173 253 -230 328 -190 379 -216 467 -238 83 -22 111 -19 214 24 106 43 155 31 203 -47 41 -66 65 -76 125 -49 59 26 99 27 124 2 22 -22 49 -103 58 -173 6 -53 8 -54 49 -34 62 31 222 37 504 20 383 -23 496 -5 725 116 61 32 126 61 145 65 52 9 116 -28 157 -90 58 -89 64 -95 85 -95 30 0 212 193 295 313 18 26 37 47 42 47 6 0 15 -19 22 -42 25 -94 75 -158 122 -158 16 0 62 18 102 40 63 35 81 40 136 40 55 0 77 6 171 51 59 28 125 53 146 56 72 10 138 -41 191 -145 44 -86 111 -34 191 148 27 63 61 125 75 137 21 18 132 51 139 41 2 -1 19 -75 40 -163 104 -450 108 -465 130 -465 19 1 87 24 270 90 57 21 61 21 103 5 24 -9 54 -31 68 -49 30 -39 74 -136 104 -228 13 -37 26 -70 31 -73 5 -3 31 9 59 26 95 60 159 56 347 -17 139 -55 193 -63 262 -40 60 20 149 109 201 199 18 31 46 68 63 83 29 24 38 26 93 21 106 -9 195 -27 233 -46 20 -10 56 -24 79 -31 57 -17 81 0 134 96 81 147 159 234 254 282 54 27 107 40 207 53 120 14 196 35 252 70 37 23 51 27 62 18 7 -6 43 -70 79 -143 36 -73 78 -153 95 -179 40 -63 67 -63 124 -2 36 38 48 45 80 45 52 0 90 -22 171 -100 166 -158 265 -227 312 -215 41 10 110 83 193 205 43 65 93 129 110 144 60 50 115 32 240 -77 45 -39 110 -85 144 -101 57 -29 66 -39 138 -146 72 -108 113 -150 148 -150 9 0 49 16 90 36 41 19 100 40 130 46 30 5 97 27 147 49 167 71 222 65 333 -36 79 -73 110 -81 166 -43 37 26 99 117 133 198 83 194 92 202 233 210 54 3 102 10 107 16 5 5 14 74 20 154 22 274 38 440 43 445 7 8 123 -80 139 -106 8 -13 30 -67 48 -119 51 -146 108 -256 161 -310 59 -61 101 -74 174 -55 66 17 97 10 204 -48 76 -41 78 -42 167 -39 120 3 167 -11 224 -66 105 -100 129 -99 281 19 94 72 139 92 187 83 73 -14 157 -131 218 -306 15 -43 29 -78 31 -78 5 0 295 222 384 294 41 33 122 107 179 163 116 114 141 126 206 99 20 -9 66 -36 101 -62 81 -57 128 -77 165 -69 16 4 65 31 110 61 131 87 178 74 257 -71 22 -41 45 -71 56 -73 12 -3 40 17 81 58 57 57 68 63 113 68 74 7 112 -17 247 -154 94 -95 129 -124 160 -133 52 -14 53 -14 114 6 48 15 54 15 84 0 18 -9 69 -47 113 -84 78 -66 211 -149 253 -160 l21 -5 0 10636 c0 5850 -1 10635 -2 10635 -2 -1 -59 -14 -128 -30z m-36350 -754 c42 -50 -73 -106 -154 -75 -42 15 -28 64 24 83 32 12 118 7 130 -8z m-13 -149 c87 -41 119 -91 72 -116 -25 -14 -141 18 -182 51 -26 20 -37 66 -20 82 14 15 80 6 130 -17z m32340 -391 c41 -17 60 -50 36 -64 -52 -27 -226 -40 -295 -21 -37 11 -82 54 -75 74 2 6 14 16 27 23 30 15 262 6 307 -12z m-29206 -43 c41 -21 55 -34 57 -53 2 -19 -3 -28 -23 -37 -32 -15 -263 -16 -299 -2 -32 12 -33 38 -5 69 33 35 77 50 150 51 54 0 77 -5 120 -28z m4267 -216 c35 -35 -20 -96 -85 -96 -40 1 -237 35 -252 44 -21 13 15 43 67 55 74 18 194 28 227 19 16 -4 35 -14 43 -22z m679 -96 c24 -10 43 -23 43 -28 0 -5 -26 -13 -57 -17 -62 -8 -107 -27 -221 -98 -40 -25 -96 -51 -123 -57 -45 -11 -117 -8 -156 7 -12 5 -12 0 2 -27 17 -32 16 -34 -1 -47 -10 -7 -25 -13 -34 -13 -23 0 -143 62 -148 76 -6 23 30 46 62 39 97 -21 103 -20 115 17 26 79 103 140 211 165 77 18 250 8 307 -17z m1633 -111 c36 -17 103 -45 148 -61 100 -36 141 -73 171 -153 27 -73 27 -107 -3 -142 -23 -26 -30 -28 -116 -32 -80 -3 -170 7 -233 25 -12 4 -17 13 -15 27 3 22 10 25 120 47 75 15 108 41 108 85 0 48 -8 63 -44 83 -26 14 -60 17 -216 17 -182 0 -186 0 -245 28 -62 29 -105 62 -105 82 0 7 21 10 63 7 34 -2 80 1 102 6 22 6 76 10 120 11 70 1 88 -3 145 -30z m22375 21 c32 -12 30 -39 -5 -57 -30 -15 -148 -17 -185 -3 -17 7 -25 16 -23 28 6 32 154 55 213 32z m-5610 -179 c27 -6 19 -11 -80 -48 -143 -53 -196 -59 -215 -23 -13 25 2 57 33 70 25 10 217 11 262 1z m213 -232 c30 -10 82 -66 82 -88 0 -27 -75 -40 -124 -21 -56 21 -70 91 -23 110 29 12 29 12 65 -1z m-4135 -104 c9 -4 17 -15 17 -26 0 -27 -26 -36 -122 -41 -48 -2 -91 -7 -94 -11 -3 -3 2 -26 11 -51 9 -24 14 -49 10 -55 -3 -6 -24 -11 -46 -11 -70 0 -129 21 -170 60 -33 31 -39 43 -39 78 0 55 25 71 137 86 75 10 102 9 183 -5 52 -9 103 -20 113 -24z m-6976 -96 c98 -23 182 -45 186 -49 13 -12 -32 -49 -72 -60 -42 -12 -182 -12 -300 -1 -74 7 -88 12 -108 35 -30 36 -29 70 3 95 39 30 88 27 291 -20z m198 -164 c70 -18 170 -75 170 -95 0 -18 -30 -18 -187 -2 -105 11 -152 26 -177 56 -38 46 80 70 194 41z"/>
<path d="M18501 27536 c-14 -61 -20 -68 -76 -86 -22 -7 -70 -26 -107 -42 -92 -41 -112 -83 -87 -184 13 -51 4 -49 149 -29 58 8 110 15 116 15 7 0 9 -24 6 -73 -4 -60 0 -82 18 -124 12 -28 32 -61 45 -73 21 -20 27 -21 84 -10 112 20 114 -15 -14 339 -63 172 -116 315 -118 317 -2 2 -9 -20 -16 -50z"/>
<path d="M7505 27096 c-18 -13 -16 -15 26 -37 37 -19 66 -24 184 -30 77 -3 148 -10 158 -14 26 -11 21 10 -12 43 -17 16 -50 34 -75 41 -65 16 -257 15 -281 -3z"/>
<path d="M8012 27076 c-37 -17 -102 -65 -102 -76 0 -10 48 -30 74 -30 13 0 49 9 81 20 32 11 72 20 89 20 l31 0 -36 35 c-41 42 -88 52 -137 31z"/>
<path d="M44135 26979 c-76 -103 -57 -139 71 -139 96 0 148 -14 182 -47 24 -24 24 -29 18 -104 -6 -75 -5 -79 17 -94 14 -8 51 -20 84 -26 52 -9 65 -8 94 7 l34 17 -26 11 c-65 27 -72 52 -34 108 14 20 25 46 25 58 0 67 -251 238 -388 263 -31 6 -35 3 -77 -54z"/>
<path d="M15980 27003 c-19 -11 -50 -13 -135 -10 -114 5 -155 -2 -155 -27 0 -16 1 -16 120 -45 99 -23 196 -32 227 -20 30 11 36 41 16 83 -18 39 -33 43 -73 19z"/>
<path d="M17888 26993 c-23 -6 -23 -30 2 -71 26 -42 76 -72 121 -72 38 0 139 37 139 50 0 5 -18 11 -40 15 -22 4 -76 24 -121 46 -44 21 -81 38 -82 38 -1 -1 -10 -3 -19 -6z"/>
<path d="M18990 26837 c-39 -19 -38 -53 2 -73 50 -25 88 -65 88 -92 0 -30 -14 -55 -67 -120 -65 -81 -57 -107 45 -146 61 -24 62 -24 72 -5 23 42 56 52 196 60 134 7 190 23 201 56 7 21 -69 93 -168 158 -53 35 -121 85 -149 110 -29 26 -63 51 -77 56 -35 13 -114 11 -143 -4z"/>
<path d="M19643 26762 c-35 -8 -63 -18 -63 -22 0 -18 273 -110 326 -110 49 0 94 17 94 36 0 37 -63 64 -185 80 -27 4 -63 12 -80 19 -24 9 -42 9 -92 -3z"/>
<path d="M14186 26609 c87 -62 265 -159 292 -159 14 0 32 56 32 101 0 21 -7 53 -16 72 l-16 34 -77 -5 c-47 -2 -105 2 -153 12 -42 9 -96 16 -119 16 l-43 0 100 -71z"/>
<path d="M18585 26615 c-59 -21 -86 -67 -47 -79 30 -10 240 10 256 24 24 19 20 26 -24 44 -60 24 -138 29 -185 11z"/>
<path d="M43000 26553 c-401 -17 -531 -36 -685 -96 -49 -19 -109 -40 -132 -46 -24 -7 -43 -14 -43 -16 0 -2 37 -18 83 -35 45 -17 103 -40 129 -50 75 -32 94 -28 107 24 12 51 58 95 99 97 15 1 77 1 137 0 99 -2 123 1 239 33 71 20 141 36 156 36 36 0 63 21 54 43 -4 12 -16 16 -43 15 -20 -1 -65 -3 -101 -5z"/>
<path d="M43258 26350 c-125 -12 -156 -48 -103 -121 72 -98 219 -117 291 -38 17 19 17 20 -37 13 -72 -8 -113 7 -104 39 4 12 22 38 41 57 19 20 34 41 34 48 0 13 -5 13 -122 2z"/>
<path d="M43020 26117 c-23 -12 -25 -18 -23 -76 4 -86 14 -101 66 -101 54 0 67 13 67 65 0 106 -41 148 -110 112z"/>
<path d="M36726 25966 l-119 -43 40 -10 c47 -12 187 -2 220 15 31 17 40 52 17 69 -24 18 -22 18 -158 -31z"/>
<path d="M36233 25949 c-84 -32 -114 -88 -77 -144 28 -43 57 -33 147 54 71 69 80 81 68 95 -18 22 -74 20 -138 -5z"/>
<path d="M43484 25891 c-63 -29 -71 -67 -23 -112 45 -42 81 -39 116 9 38 51 54 62 83 60 81 -4 92 13 28 42 -56 26 -149 26 -204 1z"/>
<path d="M43015 25766 c-27 -12 -72 -62 -63 -71 2 -2 44 -6 93 -10 79 -5 93 -4 114 13 30 24 23 66 -11 76 -38 10 -101 6 -133 -8z"/>
<path d="M34380 25632 c-58 -56 -62 -78 -22 -123 l28 -31 129 46 c71 25 138 55 149 66 l20 20 -49 0 c-41 0 -59 6 -99 35 -68 48 -94 46 -156 -13z"/>
<path d="M8845 9164 c-134 -10 -300 -26 -303 -29 -2 -2 740 -2058 1649 -4569 l1652 -4566 769 0 769 0 -7 23 c-16 51 -3263 9020 -3267 9024 -19 18 -336 76 -543 99 -131 14 -609 26 -719 18z"/>
<path d="M7017 8736 c-129 -54 -191 -100 -195 -144 -3 -29 1 -34 30 -46 78 -32 117 -29 223 15 55 23 102 43 104 45 4 4 -49 156 -58 165 -3 4 -50 -12 -104 -35z"/>
<path d="M6430 8509 c-101 -45 -292 -109 -343 -115 -56 -7 -148 13 -192 42 l-22 14 5 -80 c4 -73 2 -89 -27 -164 l-33 -83 1470 -4059 1469 -4059 771 -3 772 -2 -29 77 c-15 43 -705 1948 -1531 4233 -827 2285 -1505 4156 -1506 4158 -1 2 -72 -19 -158 -47 -181 -59 -303 -78 -391 -62 -83 16 -119 42 -152 111 -16 34 -34 59 -43 59 -8 0 -35 -9 -60 -20z"/>
<path d="M0 7838 l0 -683 1291 -3570 c711 -1964 1295 -3573 1298 -3578 4 -4 352 -6 773 -5 l766 3 -1411 3898 -1412 3898 -181 3 -182 2 -48 50 c-52 53 -168 118 -349 194 -90 38 -253 116 -264 126 -3 3 19 29 49 59 30 30 52 56 49 58 -2 2 -51 31 -109 65 -58 33 -142 83 -187 111 l-83 51 0 -682z"/>
<path d="M3700 8419 c-36 -22 -87 -46 -115 -54 -58 -17 -267 -35 -400 -35 l-91 0 0 -51 c0 -51 -1 -53 -65 -110 l-64 -57 2 -76 2 -75 -87 -3 -87 -3 1439 -3978 1440 -3977 768 0 c422 0 768 3 768 8 0 4 -661 1832 -1468 4062 l-1468 4055 -70 8 c-181 20 -369 98 -422 177 -21 30 -23 43 -18 93 3 31 5 57 3 57 -1 -1 -31 -19 -67 -41z"/>
<path d="M12102 7813 c11 -40 2821 -7798 2827 -7806 4 -4 352 -6 773 -5 l765 3 -1198 3310 c-659 1821 -1199 3311 -1199 3313 0 2 -19 0 -42 -3 -24 -4 -86 1 -140 9 -151 25 -153 24 -88 -36 30 -27 95 -81 144 -118 85 -64 90 -70 121 -146 l33 -79 -77 -6 c-42 -4 -94 -11 -116 -18 -63 -17 -134 -13 -197 13 -109 45 -153 82 -304 258 -80 93 -189 214 -241 269 l-95 99 43 1 c24 1 57 4 72 8 l28 6 -51 75 c-119 174 -327 350 -838 712 -140 99 -223 152 -220 141z"/>
<path d="M27929 6694 c21 -60 571 -1578 1221 -3374 650 -1796 1187 -3277 1192 -3292 l10 -28 769 0 c423 0 769 1 769 3 0 2 -526 1458 -1170 3236 -643 1778 -1170 3234 -1170 3236 0 6 -200 69 -345 109 -155 42 -384 89 -550 111 -66 9 -176 27 -245 40 -151 29 -314 51 -433 61 l-87 7 39 -109z"/>
<path d="M26275 6581 c-60 -21 -189 -71 -285 -111 -96 -39 -242 -98 -325 -130 -237 -91 -595 -250 -595 -264 0 -12 2192 -6062 2199 -6069 4 -4 351 -6 772 -5 l765 3 -1196 3305 c-776 2143 -1202 3306 -1211 3307 -8 2 -63 -15 -124 -36z"/>
<path d="M31885 6364 c-137 -26 -251 -56 -297 -80 -34 -18 -36 -50 -6 -90 12 -16 23 -30 24 -32 1 -2 58 25 127 60 70 34 129 59 133 56 22 -23 -130 -251 -189 -282 -33 -19 -37 -19 -138 0 l-104 20 -31 -61 c-26 -53 -34 -60 -63 -63 -21 -2 -31 -8 -29 -17 2 -8 480 -1333 1063 -2945 l1060 -2930 771 0 771 0 -432 1193 c-237 655 -699 1931 -1026 2835 l-594 1642 -40 12 c-22 7 -103 12 -182 13 l-143 0 0 74 0 74 -60 57 c-58 56 -100 125 -83 140 4 4 41 13 81 20 40 6 72 14 69 16 -2 2 -54 10 -117 19 -62 8 -142 24 -177 36 -53 17 -73 19 -118 12 l-54 -10 -17 41 c-9 23 -19 80 -22 129 -6 102 12 96 -177 61z"/>
<path d="M16690 6351 c0 -6 -18 -105 -40 -222 -22 -117 -40 -225 -40 -240 0 -19 -6 -30 -21 -34 -11 -4 -100 -4 -197 0 -180 7 -248 20 -466 84 -63 19 -68 19 -63 3 2 -9 480 -1331 1062 -2937 582 -1606 1064 -2939 1072 -2962 l15 -43 769 0 c423 0 769 2 769 5 0 9 -2220 6140 -2228 6154 -5 8 -26 20 -48 26 -42 13 -44 22 -14 65 16 23 17 32 8 62 l-10 35 -97 7 c-148 9 -471 7 -471 -3z"/>
<path d="M20287 6200 c-37 -15 -111 -57 -165 -93 -177 -117 -173 -116 -390 -172 -114 -29 -240 -66 -280 -81 -40 -14 -74 -25 -76 -23 -1 2 -15 26 -30 52 -53 93 -142 131 -330 142 l-98 6 6 -23 c3 -13 493 -1368 1089 -3013 l1083 -2990 771 -3 772 -2 -29 77 c-15 43 -522 1445 -1126 3115 -798 2206 -1103 3037 -1114 3037 -8 0 -46 -13 -83 -29z"/>
<path d="M47080 6209 c-25 -4 -59 -11 -76 -14 -24 -4 -35 -14 -49 -45 -10 -22 -38 -59 -62 -81 -41 -38 -153 -99 -180 -99 -7 0 -13 -1 -13 -2 0 -2 486 -1344 1079 -2983 l1079 -2980 376 -3 376 -2 0 1092 0 1093 -501 1385 c-276 762 -506 1397 -511 1412 l-10 27 -49 -19 c-27 -11 -61 -17 -76 -15 -25 5 -672 54 -719 55 -32 1 47 38 226 105 153 58 279 114 255 114 -5 0 -72 -13 -147 -28 -76 -15 -140 -26 -143 -23 -3 3 -5 22 -5 42 l0 36 132 22 c73 13 138 28 145 33 35 30 112 173 99 186 -2 2 -100 -7 -218 -21 -117 -15 -227 -26 -243 -25 -30 0 -30 0 -6 10 14 5 106 30 205 55 196 48 303 81 311 94 6 10 -14 70 -24 70 -4 0 -72 -11 -152 -24 -79 -14 -184 -28 -234 -32 l-90 -7 47 37 c26 20 95 67 155 106 59 38 102 70 96 70 -33 0 -330 -82 -356 -99 -16 -10 -39 -36 -51 -57 -20 -37 -25 -40 -91 -51 -109 -20 -209 -21 -230 -3 -10 8 -50 58 -88 110 -39 52 -88 111 -110 131 l-39 36 73 31 c41 16 146 56 234 87 175 62 372 142 380 155 12 20 -71 1 -523 -117 -168 -44 -156 -48 -194 73 -12 41 -25 74 -28 73 -3 -1 -25 -5 -50 -10z"/>
<path d="M44915 6127 c-145 -75 -191 -103 -237 -145 -40 -37 -37 -81 12 -177 53 -104 52 -127 -2 -162 -116 -73 -344 -152 -525 -183 -154 -27 -172 -26 -222 10 -52 38 -66 72 -52 121 6 20 11 39 11 43 0 3 -36 6 -80 6 -44 0 -80 -3 -80 -7 0 -5 458 -1274 1017 -2820 l1018 -2813 769 0 c738 0 768 1 764 18 -9 35 -2001 5537 -2007 5544 -3 3 -39 3 -78 -1 -40 -4 -73 -4 -73 0 0 3 26 27 59 53 l58 47 -36 99 c-35 97 -37 100 -71 106 -57 11 -110 35 -110 51 0 8 18 39 39 70 l40 55 -28 76 c-15 42 -31 77 -37 79 -5 1 -72 -30 -149 -70z"/>
<path d="M40523 5983 c3 -4 489 -1345 1080 -2978 592 -1634 1078 -2978 1082 -2987 7 -17 53 -18 777 -18 729 0 770 1 763 18 -3 9 -481 1329 -1061 2932 -581 1603 -1059 2918 -1063 2923 -10 10 -107 -20 -126 -40 -12 -12 -15 -26 -10 -52 21 -117 20 -123 -24 -167 -41 -40 -197 -134 -223 -134 -8 0 -36 23 -63 51 -75 76 -72 75 -160 21 l-78 -47 -107 -3 c-157 -6 -162 0 -71 87 41 40 84 74 95 76 12 2 101 8 199 13 172 8 179 10 204 34 l25 25 -83 13 c-99 14 -136 28 -250 92 l-87 49 -95 -44 c-52 -24 -97 -49 -101 -56 -4 -6 2 -39 14 -73 24 -69 20 -105 -14 -137 l-24 -22 -43 22 c-47 23 -89 54 -179 130 -30 25 -83 65 -117 88 -41 27 -76 62 -103 100 -39 59 -53 68 -133 86 -16 3 -26 2 -24 -2z"/>
<path d="M23427 5883 c-19 -43 -56 -129 -82 -192 -40 -99 -44 -118 -35 -144 17 -50 12 -116 -11 -148 -11 -16 -26 -29 -33 -29 -20 0 -89 89 -123 159 -20 40 -30 54 -26 36 3 -16 3 -27 -1 -23 -4 3 -14 37 -22 75 -7 37 -33 120 -56 183 l-42 115 -9 -60 c-13 -97 8 -265 44 -349 31 -72 40 -147 22 -180 -7 -14 -12 -4 -23 41 l-12 58 -32 -36 c-20 -24 -43 -72 -64 -137 -18 -56 -41 -111 -51 -123 l-18 -22 -229 33 c-126 18 -235 36 -242 40 -16 8 82 103 194 186 41 31 74 59 74 62 0 2 -89 3 -197 1 l-198 -4 -13 28 c-12 26 -11 34 18 93 17 36 30 75 28 87 -4 29 -55 56 -119 64 -49 6 -52 5 -45 -13 10 -25 2024 -5586 2043 -5641 l15 -43 769 0 c423 0 769 2 769 4 0 6 -1942 5371 -1945 5375 -2 1 -55 -9 -117 -24 -62 -15 -134 -28 -160 -29 -27 0 -48 -2 -48 -4 0 -1 7 -19 15 -39 20 -46 19 -53 -5 -53 -14 0 -20 -7 -20 -23 0 -13 -14 -36 -30 -52 l-31 -29 -24 29 c-34 41 -38 64 -30 151 l7 75 34 -21 c20 -11 38 -20 41 -20 5 0 -2 46 -14 97 -4 20 0 22 56 29 53 6 61 9 61 28 -1 45 -38 458 -42 462 -3 2 -21 -31 -41 -73z"/>
<path d="M38320 5610 c-47 -10 -128 -29 -181 -42 -94 -23 -98 -23 -319 -11 -124 6 -225 11 -226 10 -1 -1 451 -1254 1004 -2784 l1007 -2783 768 0 c450 0 767 4 767 9 0 8 -1939 5373 -1944 5378 -6 7 -665 -111 -770 -137 -65 -17 -120 -29 -121 -28 -5 7 -25 72 -23 74 2 1 46 7 98 13 123 15 199 35 284 74 l69 31 -58 26 -59 26 57 32 c58 33 137 103 137 122 0 6 -74 10 -202 9 -159 0 -222 -5 -288 -19z"/>
<path d="M36030 5439 c-25 -15 -56 -28 -70 -28 -49 -2 -72 -13 -67 -31 3 -14 -3 -20 -25 -24 -46 -9 -107 -7 -128 4 -23 12 -128 -6 -340 -61 -151 -39 -159 -40 -345 -42 -218 -2 -233 -7 -327 -97 -39 -38 -49 -54 -46 -72 4 -17 1793 -4965 1833 -5070 7 -17 53 -18 777 -18 612 0 769 3 765 13 -2 6 -446 1234 -987 2727 -540 1493 -985 2718 -989 2721 -3 4 -26 -6 -51 -22z"/>
<path d="M0 1437 l0 -1437 521 0 c492 0 521 1 517 18 -9 30 -1030 2847 -1034 2851 -2 2 -4 -642 -4 -1432z"/>
</g>
</svg>
